<svg width="52" height="52" fill="none" xmlns="http://www.w3.org/2000/svg"><g clip-path="url(#clip0_2_2880)"><path d="M46.99 26.367c-.202 11.593-9.765 20.827-21.359 20.625-11.588-.203-20.823-9.766-20.62-21.358.2-11.594 9.763-20.829 21.354-20.626 11.593.202 20.827 9.766 20.625 21.36z" fill="#F7931A"/><path d="M34.349 21.003c-.222-2.817-2.633-3.802-5.693-4.124l.068-3.9-2.375-.041-.066 3.797c-.623-.01-1.262-.01-1.896-.008l.067-3.822-2.373-.042-.069 3.9c-.514 0-1.019.002-1.511-.007v-.012l-3.275-.058-.043 2.536s1.753-.003 1.724.029c.962.017 1.265.58 1.347 1.064l-.077 4.443c.066.002.153.006.25.021l-.25-.004-.11 6.225c-.047.302-.233.782-.905.771.03.027-1.726-.03-1.726-.03l-.521 2.827 3.09.054c.575.01 1.14.03 1.696.044l-.068 3.945 2.372.042.068-3.903c.65.025 1.28.04 1.896.05l-.069 3.886 2.374.041.07-3.938c3.995-.159 6.807-1.116 7.218-4.857.333-3.013-1.063-4.385-3.319-4.97 1.388-.678 2.27-1.898 2.105-3.959zm-3.47 8.377c-.05 2.949-5.092 2.526-6.702 2.499l.092-5.227c1.61.028 6.663-.346 6.611 2.728zm-.976-7.393c-.047 2.682-4.252 2.296-5.593 2.273l.083-4.741c1.341.023 5.56-.33 5.51 2.468z" fill="#fff"/></g><defs><clipPath id="clip0_2_2880"><path fill="#fff" transform="rotate(-13 45.44 1.557)" d="M0 0h42v42H0z"/></clipPath></defs></svg>