<svg width="241" height="260" fill="none" xmlns="http://www.w3.org/2000/svg"><g opacity=".2"><path d="M123.79 0L41.032 87.925l11.415 93.969 71.343 31.391v1.152l71.352-31.391 11.414-93.96L123.79 0z" fill="#FFDE52"/><path d="M130.561 210.998v-.532l-71.352-31.391-11.415-93.96 78.264-83.148L123.79 0 41.032 87.464l11.415 93.96 71.343 31.391v1.161l6.771-2.978z" fill="#fff"/><path d="M123.789 0L2.976 64.05l38.056 23.875L123.788 0z" fill="#FFDE52"/><path opacity=".4" d="M91.494 17.122l-52.58 55.86-24.17-15.172-11.77 6.24L41.03 87.925 123.79 0 91.494 17.122z" fill="#fff"/><path d="M2.976 64.047L9.64 204.82l42.805-22.927-2.02-16.626-9.395-77.343L2.977 64.047zM240.8 62.605l-34.244 26.48L123.789 0 240.8 62.605z" fill="#FFBC45"/><path d="M52.447 181.895l71.342 31.39V260L9.641 204.822l42.806-22.927z" fill="#E5A535"/><path d="M123.789 213.282l71.352-30.239 45.659 21.775-117.011 55.178v-46.714z" fill="#FFBC45"/><path d="M206.557 89.087l-11.415 93.96 45.659 21.776V62.606l-34.244 26.481z" fill="#E5A535"/><path opacity=".502" d="M225.407 104.357l15.394-22.91v-19.7l-34.245 26.48-11.414 93.96 11.68 5.575 18.585-83.405z" fill="#C97231"/><path opacity=".502" d="M195.142 183.041l11.415-93.96-56.835-17.104 45.42 111.064z" fill="#C97231"/><path opacity=".4" d="M190.667 71.977l6.399 6.895L72.831 190.858l-20.383-8.969-2.765-22.732 140.984-87.18z" fill="#fff"/><path opacity=".502" d="M52.446 181.893l48.788-26.623 93.907 27.775-71.352 30.239-71.343-31.391z" fill="#C97231"/><path opacity=".4" d="M123.789 213.286l78.433-88.536-7.081 58.297-71.352 30.239zM43.372 107.22l110.852-74.463 3.031 3.262-110.657 97.7-3.226-26.499z" fill="#fff"/><path opacity=".502" d="M47.99 184.279c32.87 15.66 51.845 27.12 56.914 34.396 5.078 7.276 11.371 21.057 18.886 41.326v-46.715l-71.343-32.321-4.458 3.314z" fill="#C97231"/><path opacity=".502" d="M3.596 74.168c10.724 1.294 18.762 8.845 24.115 22.653 5.353 13.817 12.115 42.965 20.278 87.455l4.91-2.384-11.867-93.969L2.976 64.047l.62 10.121z" fill="#C97231"/><path d="M9.64 204.821l43.26-22.927-.452-3.589L9.64 204.821zM206.557 88.228l34.244-25.622L201.549 83.7l5.008 4.529z" fill="#fff"/><path opacity=".102" d="M86.416 181.964c-2.96 23.77-24.62 40.644-48.389 37.693-23.769-2.961-40.643-24.62-37.692-48.39 2.951-23.778 24.62-40.652 48.39-37.692 23.768 2.951 40.643 24.62 37.691 48.389z" fill="#fff"/><path opacity=".2" d="M78.954 179.352c-2.18 17.548-18.177 29.999-35.724 27.819-17.548-2.18-30-18.168-27.82-35.716 2.18-17.547 18.177-30.008 35.725-27.828 17.548 2.18 30 18.177 27.82 35.725z" fill="#fff"/><path opacity=".702" d="M49.894 153.608c-2.57 9.482-2.712 21.792-20.118 21.119 4.804 3.013 10.245 5.805 13.214 11.025 2.633 4.644 4.316 12.124 4.201 17.379 1.675-5.495 1.02-10.901 5.202-16.2 3.129-3.962 7.888-6.408 12.878-6.364-5.132-3.731-9.98-3.855-12.505-10.847-.966-2.677-1.817-5.451-2.278-8.163-.487-2.809.328-6.957-1.196-9.155l.602 1.206z" fill="#fff"/><path d="M53.803 176.737c-1.339-4.068-2.774-3.598-4.015-1.861-6.221-2.942-5.326 17.096 1.932 12.035 2.455-1.719 2.907-7.657 2.083-10.174z" fill="#fff"/><path opacity=".102" d="M233.951 89.21c-2.207 17.742-18.381 30.336-36.124 28.129-17.743-2.207-30.336-18.372-28.129-36.114 2.206-17.743 18.371-30.345 36.114-28.139 17.743 2.207 30.345 18.381 28.139 36.124z" fill="#fff"/><path opacity=".2" d="M228.376 87.254c-1.631 13.098-13.56 22.395-26.659 20.773-13.098-1.631-22.395-13.568-20.773-26.667 1.63-13.099 13.568-22.395 26.667-20.765 13.099 1.631 22.396 13.569 20.765 26.659z" fill="#fff"/><path opacity=".702" d="M206.69 68.039c-1.914 7.081-2.03 16.271-15.022 15.766 3.589 2.251 7.648 4.334 9.864 8.225 1.967 3.465 3.226 9.048 3.137 12.974 1.25-4.103.762-8.135 3.891-12.088 2.331-2.96 5.885-4.786 9.607-4.75-3.829-2.792-7.454-2.88-9.332-8.1-.727-1.995-1.356-4.069-1.702-6.09-.363-2.1.239-5.193-.895-6.832l.452.895z" fill="#fff"/><path d="M209.605 85.3c-.993-3.04-2.065-2.686-2.996-1.383-4.644-2.198-3.97 12.762 1.436 8.978 1.834-1.276 2.171-5.716 1.56-7.595z" fill="#fff"/><path opacity=".502" d="M123.373 224.936l46.076-14.499c29.414-8.091 50.268-8.579 62.569-1.471l8.783-4.148-45.66-21.775-71.352 30.239-.416 11.654z" fill="#C97231"/><path d="M123.789 213.282v46.715l6.709-49.559-6.709 2.844z" fill="#fff"/></g></svg>