<svg width="388" height="419" fill="none" xmlns="http://www.w3.org/2000/svg"><path d="M199.089 0L65.991 141.407l18.358 151.129 114.74 50.485v1.853l114.753-50.485 18.359-151.114L199.089 0z" fill="#FFDE52"/><path d="M209.978 339.344v-.855L95.224 288.003 76.867 136.889 202.737 3.164 199.089 0 65.991 140.666 84.349 291.78l114.74 50.486v1.867l10.889-4.789z" fill="#fff"/><path d="M199.091 0L4.789 103.009l61.204 38.399L199.091 0z" fill="#FFDE52"/><path opacity=".4" d="M147.152 27.538l-84.565 89.839-38.87-24.402L4.79 103.009l61.204 38.399L199.091 0l-51.939 27.538z" fill="#fff"/><path d="M4.79 103.031l10.718 226.401 68.844-36.873-3.25-26.74L65.993 141.43 4.79 103.031zm382.484-2.345l-55.075 42.589L199.087 0l188.187 100.686z" fill="#FFBC45"/><path d="M84.349 292.527l114.74 50.486v75.129L15.505 329.401l68.844-36.874z" fill="#E5A535"/><path d="M199.087 343.027l114.754-48.632 73.433 35.02-188.187 88.742v-75.13z" fill="#FFBC45"/><path d="M332.2 143.277l-18.358 151.114 73.433 35.021V100.688L332.2 143.277z" fill="#E5A535"/><path opacity=".502" d="M362.517 167.847l24.758-36.845V99.316l-55.075 42.59-18.358 151.114 18.786 8.966 29.889-134.139zM77.18 296.378c52.866 25.186 83.382 43.616 91.535 55.318 8.167 11.702 18.287 33.866 30.374 66.463v-75.13l-114.74-51.982-7.17 5.331z" fill="#C97231"/><path opacity=".502" d="M5.787 119.309c17.247 2.081 30.174 14.225 38.783 36.431 8.61 22.222 19.485 69.101 32.612 140.653l7.897-3.834L65.993 141.43 4.79 103.031l.998 16.278z" fill="#C97231"/><path d="M15.505 329.408l69.571-36.873-.727-5.773-68.844 42.646zm316.696-187.51l55.075-41.207-63.128 33.923 8.053 7.284z" fill="#fff"/><path opacity=".102" d="M138.982 292.65c-4.761 38.228-39.596 65.367-77.823 60.62-38.228-4.76-65.367-39.596-60.62-77.823 4.746-38.242 39.596-65.381 77.823-60.62 38.228 4.746 65.366 39.596 60.62 77.823z" fill="#fff"/><path opacity=".2" d="M126.984 288.44c-3.506 28.221-29.234 48.247-57.456 44.741-28.221-3.506-48.247-29.219-44.74-57.441 3.505-28.222 29.233-48.262 57.455-44.756 28.221 3.506 48.247 29.234 44.741 57.456z" fill="#fff"/><path opacity=".702" d="M80.246 247.044c-4.133 15.251-4.362 35.049-32.355 33.966 7.725 4.846 16.477 9.336 21.252 17.731 4.233 7.469 6.94 19.499 6.756 27.951 2.694-8.837 1.639-17.531 8.366-26.055 5.032-6.371 12.686-10.305 20.711-10.234-8.253-6-16.05-6.2-20.112-17.446-1.554-4.304-2.922-8.766-3.663-13.127-.784-4.519.527-11.189-1.924-14.724l.969 1.938z" fill="#fff"/><path d="M86.53 284.252c-2.153-6.542-4.462-5.787-6.457-2.993-10.006-4.732-8.567 27.495 3.107 19.356 3.948-2.765 4.675-12.315 3.35-16.363z" fill="#fff"/><path opacity=".102" d="M376.26 143.473c-3.549 28.535-29.561 48.789-58.097 45.24-28.535-3.549-48.789-29.547-45.24-58.082 3.549-28.536 29.547-48.804 58.083-45.255 28.535 3.55 48.803 29.562 45.254 58.097z" fill="#fff"/><path opacity=".2" d="M367.297 140.325c-2.622 21.066-21.807 36.018-42.874 33.41-21.066-2.623-36.018-21.822-33.41-42.889 2.623-21.066 21.822-36.018 42.889-33.395 21.066 2.622 36.018 21.822 33.395 42.874z" fill="#fff"/><path opacity=".702" d="M332.418 109.413c-3.079 11.388-3.264 26.169-24.16 25.357 5.773 3.62 12.301 6.97 15.864 13.227 3.165 5.573 5.189 14.553 5.046 20.867 2.01-6.599 1.226-13.085 6.257-19.442 3.749-4.76 9.465-7.696 15.451-7.639-6.157-4.49-11.987-4.633-15.009-13.028-1.169-3.207-2.181-6.542-2.737-9.792-.584-3.378.385-8.353-1.439-10.99l.727 1.44z" fill="#fff"/><path d="M337.104 137.19c-1.596-4.889-3.321-4.319-4.817-2.224-7.469-3.535-6.386 20.525 2.309 14.439 2.95-2.053 3.492-9.194 2.508-12.215z" fill="#fff"/><path opacity=".502" d="M198.422 361.77l74.103-23.318c47.307-13.014 80.846-13.798 100.629-2.366l14.125-6.671-73.433-35.02-114.754 48.632-.67 18.743z" fill="#C97231"/><path d="M199.087 343.025v75.129l10.79-79.705-10.79 4.576z" fill="#fff"/></svg>