<svg width="28" height="24" fill="none" xmlns="http://www.w3.org/2000/svg"><path d="M10.656 0l-.781.1S6.371.51 3.812 2.713h-.03l-.032.032c-.574.565-.824 1.26-1.219 2.277A34.501 34.501 0 001.344 8.77C.602 11.642 0 15.123 0 18.307v.268l.125.268c.926 1.74 2.57 2.848 4.094 3.614 1.523.766 2.84 1.172 3.75 1.205l.594.033.312-.569 1.094-2.075c1.16.28 2.496.469 4.031.469 1.535 0 2.871-.189 4.031-.47l1.094 2.076.313.57.593-.034c.91-.033 2.227-.44 3.75-1.205 1.524-.766 3.168-1.874 4.094-3.614l.125-.268v-.268c0-3.184-.602-6.665-1.344-9.538a34.506 34.506 0 00-1.187-3.748c-.395-1.018-.645-1.712-1.219-2.276l-.031-.034h-.032C21.63.51 18.125.1 18.125.1l-.781-.1-.282.77s-.289.782-.468 1.674A18.788 18.788 0 0014 2.243c-.535 0-1.46.037-2.594.2-.18-.891-.469-1.673-.469-1.673L10.656 0zM9.281 2.444c.043.15.086.28.125.402-1.293.342-2.672.865-3.937 1.706l1.062 1.807C9.125 4.635 12.851 4.385 14 4.385c1.148 0 4.875.25 7.469 1.974l1.062-1.807c-1.265-.841-2.644-1.364-3.937-1.708.039-.12.082-.25.125-.401.933.201 2.715.662 4.187 1.908-.008.005.375.624.719 1.506.352.908.742 2.117 1.094 3.48.676 2.615 1.207 5.799 1.25 8.602-.63 1.029-1.797 1.957-3.032 2.577a9.288 9.288 0 01-2.437.836l-.5-.903c.297-.118.59-.246.844-.368 1.539-.724 2.375-1.506 2.375-1.506l-1.313-1.607s-.562.553-1.875 1.172c-1.311.619-3.316 1.238-6.031 1.238s-4.719-.619-6.031-1.238c-1.313-.619-1.875-1.172-1.875-1.172l-1.313 1.607s.836.782 2.375 1.506c.254.122.547.251.844.368l-.5.904a9.29 9.29 0 01-2.438-.838c-1.234-.619-2.402-1.547-3.03-2.576.042-2.803.573-5.987 1.25-8.601a32.29 32.29 0 011.093-3.48c.344-.883.727-1.502.719-1.507 1.472-1.246 3.254-1.707 4.187-1.907zM10.5 9.739c-.773 0-1.457.473-1.875 1.071-.418.6-.625 1.335-.625 2.142 0 .808.207 1.543.625 2.142.418.599 1.102 1.071 1.875 1.071.773 0 1.457-.472 1.875-1.07.418-.6.625-1.335.625-2.143 0-.807-.207-1.543-.625-2.142-.418-.598-1.102-1.07-1.875-1.07zm7 0c-.773 0-1.457.473-1.875 1.071-.418.599-.625 1.335-.625 2.142 0 .808.207 1.543.625 2.142.418.599 1.102 1.071 1.875 1.071.773 0 1.457-.472 1.875-1.07.418-.6.625-1.335.625-2.143 0-.807-.207-1.543-.625-2.142-.418-.598-1.102-1.07-1.875-1.07zm-7 2.142c.055 0 .125.022.25.202.125.178.25.492.25.87 0 .376-.125.69-.25.87-.125.179-.195.2-.25.2-.055 0-.125-.021-.25-.201a1.576 1.576 0 01-.25-.87c0-.377.125-.69.25-.87.125-.18.195-.2.25-.2zm7 0c.055 0 .125.022.25.202.125.178.25.492.25.87 0 .376-.125.69-.25.87-.125.179-.195.2-.25.2-.055 0-.125-.021-.25-.201a1.576 1.576 0 01-.25-.87c0-.377.125-.69.25-.87.125-.18.195-.2.25-.2z" fill="#fff"/></svg>