<svg xmlns="http://www.w3.org/2000/svg" viewBox="0 0 48 48"><circle cx="24" cy="24" r="23.5" fill="#ff9e00" stroke="#fff" stroke-miterlimit="10"/><path d="M24 17.6c-3.2 0-5.8 2.8-5.8 6.2S20.8 30 24 30c3.2 0 5.8-2.8 5.8-6.2s-2.6-6.2-5.8-6.2zm0 10.2c-2.1 0-3.8-1.8-3.8-4s1.7-4 3.8-4c2.1 0 3.8 1.8 3.8 4s-1.7 4-3.8 4zm6-11.9c-.7 0-1.3.6-1.3 1.4s.6 1.4 1.3 1.4c.7 0 1.3-.6 1.3-1.4 0-.2 0-.4-.1-.6-.1-.2-.2-.3-.3-.5s-.3-.2-.4-.3c-.1.1-.3 0-.5 0zm5.3 7.9c0-1.7 0-3.3-.1-5-.1-1.9-.5-3.6-1.8-5.1-1.3-1.4-2.9-1.9-4.7-1.9-1.6-.1-3.1-.1-4.6-.1-1.6 0-3.1 0-4.6.1-1.8.1-3.4.5-4.7 1.9-1.3 1.4-1.7 3.1-1.8 5.1-.1 1.7-.1 3.3-.1 5 0 1.7 0 3.3.1 5 .1 1.9.5 3.6 1.8 5.1 1.3 1.4 2.9 1.9 4.7 1.9 1.6.1 3.1.1 4.6.1 1.6 0 3.1 0 4.6-.1 1.8-.1 3.4-.5 4.7-1.9 1.3-1.4 1.7-3.1 1.8-5.1.1-1.7.1-3.3.1-5zm-2.5 7.1c-.2.5-.5 1-.9 1.4-.4.4-.8.7-1.3.9-1.5.6-5 .5-6.6.5s-5.2.1-6.6-.5c-.5-.2-.9-.5-1.3-.9s-.6-.8-.9-1.4c-.6-1.6-.5-5.4-.5-7.1 0-1.8-.1-5.5.5-7.1.2-.5.5-1 .9-1.4.4-.4.8-.7 1.3-.9 1.5-.6 5-.5 6.6-.5s5.2-.1 6.6.5c.5.2.9.5 1.3.9s.6.8.9 1.4c.6 1.6.5 5.4.5 7.1-.1 1.8.1 5.5-.5 7.1z" fill="#fff" stroke="#ff9e00" stroke-miterlimit="10"/></svg>