<svg width="48" height="48" xmlns="http://www.w3.org/2000/svg" fill="none"><path d="M24 47.5C11.017 47.5.5 36.983.5 24S11.017.5 24 .5 47.5 11.017 47.5 24 36.983 47.5 24 47.5z" opacity="undefined" stroke="#FF9E00"/><path stroke="#FF9E00" d="M23.997 17.628c-3.199 0-5.78 2.765-5.78 6.19 0 3.426 2.581 6.191 5.78 6.191 3.198 0 5.78-2.765 5.78-6.19 0-3.426-2.582-6.19-5.78-6.19zm0 10.214c-2.069 0-3.757-1.808-3.757-4.023 0-2.216 1.688-4.024 3.757-4.024 2.068 0 3.756 1.808 3.756 4.024 0 2.215-1.688 4.023-3.756 4.023zm6.017-11.91c-.747 0-1.35.646-1.35 1.446 0 .8.603 1.445 1.35 1.445.746 0 1.35-.642 1.35-1.445 0-.19-.035-.378-.103-.554a1.455 1.455 0 00-.292-.469 1.346 1.346 0 00-.439-.313 1.27 1.27 0 00-.516-.11zm5.25 7.887c0-1.666.014-3.317-.074-4.98-.087-1.932-.498-3.646-1.817-5.059-1.322-1.415-2.92-1.853-4.723-1.947-1.556-.093-3.098-.078-4.65-.078-1.556 0-3.098-.015-4.65.078-1.804.094-3.405.534-4.724 1.947-1.321 1.416-1.73 3.127-1.817 5.059-.088 1.666-.074 3.317-.074 4.98 0 1.663-.014 3.317.074 4.98.087 1.932.498 3.646 1.817 5.058 1.322 1.416 2.92 1.854 4.724 1.947 1.555.094 3.097.079 4.65.079 1.555 0 3.097.015 4.65-.079 1.803-.093 3.404-.534 4.723-1.947 1.322-1.415 1.73-3.127 1.818-5.058.09-1.663.073-3.314.073-4.98zm-2.48 7.117c-.206.55-.454.96-.851 1.382a3.594 3.594 0 01-1.291.912c-1.482.63-5.002.489-6.645.489-1.643 0-5.166.141-6.648-.486a3.572 3.572 0 01-1.291-.912 3.895 3.895 0 01-.851-1.382c-.586-1.59-.454-5.36-.454-7.12 0-1.76-.132-5.533.454-7.12.206-.55.454-.96.85-1.383a3.635 3.635 0 011.292-.911c1.482-.628 5.005-.486 6.648-.486 1.643 0 5.165-.142 6.648.486.513.22.896.486 1.29.911.398.426.646.833.852 1.383.586 1.587.453 5.36.453 7.12 0 1.76.133 5.53-.456 7.117z"/></svg>