<svg width="241" height="260" viewBox="0 0 241 260" fill="none" xmlns="http://www.w3.org/2000/svg">
<g opacity="0.2">
<path d="M123.79 0L41.0318 87.9247L52.4467 181.894L123.79 213.285V214.437L195.142 183.046L206.556 89.0856L123.79 0Z" fill="#FFDE52"/>
<path d="M130.561 210.998V210.466L59.2088 179.075L47.7939 85.1152L126.058 1.96745L123.79 0L41.0318 87.4638L52.4467 181.424L123.79 212.815V213.976L130.561 210.998Z" fill="white"/>
<path d="M123.789 0L2.97592 64.0491L41.0315 87.9247L123.789 0Z" fill="#FFDE52"/>
<path opacity="0.4" d="M91.4944 17.1223L38.9133 72.9825L14.7453 57.81L2.97592 64.0491L41.0315 87.9247L123.789 0L91.4944 17.1223Z" fill="white"/>
<path d="M2.97592 64.0475L9.64053 204.819L52.4464 181.892L50.4257 165.266L41.0315 87.9231L2.97592 64.0475Z" fill="#FFBC45"/>
<path d="M240.8 62.6045L206.556 89.0856L123.789 0L240.8 62.6045Z" fill="#FFBC45"/>
<path d="M52.4465 181.895L123.789 213.285V260L9.64062 204.822L52.4465 181.895Z" fill="#E5A535"/>
<path d="M123.789 213.282L195.141 183.043L240.8 204.818L123.789 259.996V213.282Z" fill="#FFBC45"/>
<path d="M206.557 89.0874L195.142 183.047L240.801 204.823V62.6063L206.557 89.0874Z" fill="#E5A535"/>
<path opacity="0.502" d="M225.407 104.357L240.801 81.4474V61.7461L206.556 88.2272L195.142 182.187L206.822 187.762L225.407 104.357Z" fill="#C97231"/>
<path opacity="0.502" d="M195.142 183.041L206.557 89.0811L149.722 71.9766L195.142 183.041Z" fill="#C97231"/>
<path opacity="0.4" d="M190.667 71.9766L197.066 78.8716L72.8314 190.858L52.4477 181.889L49.6826 159.157L190.667 71.9766Z" fill="white"/>
<path opacity="0.502" d="M52.4463 181.893L101.234 155.27L195.141 183.045L123.789 213.284L52.4463 181.893Z" fill="#C97231"/>
<path opacity="0.4" d="M123.789 213.286L202.222 124.75L195.141 183.047L123.789 213.286Z" fill="white"/>
<path opacity="0.4" d="M43.372 107.22L154.224 32.7574L157.255 36.0188L46.598 133.719L43.372 107.22Z" fill="white"/>
<path opacity="0.502" d="M47.9893 184.279C80.8602 199.939 99.8348 211.399 104.904 218.675C109.982 225.951 116.275 239.732 123.79 260.001V213.286L52.4471 180.965L47.9893 184.279Z" fill="#C97231"/>
<path opacity="0.502" d="M3.59636 74.1685C14.32 75.4625 22.3582 83.0134 27.7111 96.8211C33.0641 110.638 39.8262 139.786 47.9885 184.276L52.8984 181.892L41.0315 87.9231L2.97592 64.0475L3.59636 74.1685Z" fill="#C97231"/>
<path d="M9.64093 204.821L52.8988 181.894L52.4468 178.305L9.64093 204.821Z" fill="white"/>
<path d="M206.557 88.2277L240.801 62.6063L201.549 83.699L206.557 88.2277Z" fill="white"/>
<path opacity="0.102" d="M86.4163 181.964C83.4563 205.734 61.7964 222.608 38.0272 219.657C14.258 216.696 -2.61618 195.037 0.335023 171.267C3.28623 147.489 24.955 130.615 48.7242 133.575C72.4934 136.526 89.3676 158.195 86.4163 181.964Z" fill="white"/>
<path opacity="0.2" d="M78.9541 179.352C76.7739 196.9 60.7772 209.351 43.2295 207.171C25.6818 204.991 13.23 189.003 15.4101 171.455C17.5903 153.908 33.5872 141.447 51.1349 143.627C68.6826 145.807 81.1343 161.804 78.9541 179.352Z" fill="white"/>
<path opacity="0.702" d="M49.8943 153.608C47.3242 163.09 47.1823 175.4 29.7764 174.727C34.5798 177.74 40.0214 180.532 42.9904 185.752C45.6225 190.396 47.3064 197.876 47.1912 203.131C48.8662 197.636 48.2104 192.23 52.3934 186.931C55.5219 182.969 60.2811 180.523 65.2707 180.567C60.1393 176.836 55.2915 176.712 52.7657 169.72C51.7997 167.043 50.9488 164.269 50.488 161.557C50.0006 158.748 50.8159 154.6 49.2916 152.402L49.8943 153.608Z" fill="white"/>
<path d="M53.8026 176.737C52.4644 172.669 51.0287 173.139 49.788 174.876C43.5665 171.934 44.4616 191.972 51.72 186.911C54.1749 185.192 54.6268 179.254 53.8026 176.737Z" fill="white"/>
<path opacity="0.102" d="M233.951 89.2097C231.744 106.952 215.57 119.546 197.827 117.339C180.084 115.132 167.491 98.9673 169.698 81.2246C171.904 63.4819 188.069 50.8795 205.812 53.0862C223.555 55.293 236.157 71.467 233.951 89.2097Z" fill="white"/>
<path opacity="0.2" d="M228.376 87.2536C226.745 100.352 214.816 109.649 201.717 108.027C188.619 106.396 179.322 94.4588 180.944 81.36C182.574 68.2612 194.512 58.9646 207.611 60.5953C220.71 62.226 230.007 74.1637 228.376 87.2536Z" fill="white"/>
<path opacity="0.702" d="M206.69 68.0389C204.776 75.12 204.66 84.3104 191.668 83.8053C195.257 86.0563 199.316 88.139 201.532 92.0297C203.499 95.4949 204.758 101.078 204.669 105.004C205.919 100.901 205.431 96.8686 208.56 92.9159C210.891 89.9558 214.445 88.1302 218.167 88.1656C214.338 85.374 210.713 85.2853 208.835 80.0653C208.108 78.0713 207.479 75.9974 207.133 73.9768C206.77 71.8764 207.372 68.7833 206.238 67.1437L206.69 68.0389Z" fill="white"/>
<path d="M209.605 85.2997C208.612 82.2598 207.54 82.6143 206.609 83.9171C201.965 81.7192 202.639 96.6791 208.045 92.8948C209.879 91.6186 210.216 87.1785 209.605 85.2997Z" fill="white"/>
<path opacity="0.502" d="M123.373 224.936L169.449 210.437C198.863 202.346 219.717 201.858 232.018 208.966L240.801 204.818L195.141 183.043L123.789 213.282L123.373 224.936Z" fill="#C97231"/>
<path d="M123.789 213.282V259.997L130.498 210.438L123.789 213.282Z" fill="white"/>
</g>
</svg>
