<svg width="388" height="419" viewBox="0 0 388 419" fill="none" xmlns="http://www.w3.org/2000/svg">
<path d="M199.089 0L65.9908 141.407L84.3492 292.536L199.089 343.021V344.874L313.842 294.389L332.201 143.275L199.089 0Z" fill="#FFDE52"/>
<path d="M209.978 339.344V338.489L95.2245 288.003L76.8662 136.889L202.737 3.1642L199.089 0L65.9908 140.666L84.3492 291.78L199.089 342.266V344.133L209.978 339.344Z" fill="white"/>
<path d="M199.091 0L4.78906 103.009L65.9932 141.408L199.091 0Z" fill="#FFDE52"/>
<path opacity="0.4" d="M147.152 27.5375L62.5867 117.377L23.7176 92.9749L4.78906 103.009L65.9932 141.408L199.091 0L147.152 27.5375Z" fill="white"/>
<path d="M4.78906 103.031L15.5076 329.432L84.3516 292.559L81.1018 265.819L65.9932 141.43L4.78906 103.031Z" fill="#FFBC45"/>
<path d="M387.274 100.686L332.199 143.275L199.087 0L387.274 100.686Z" fill="#FFBC45"/>
<path d="M84.3489 292.527L199.089 343.013V418.142L15.5049 329.401L84.3489 292.527Z" fill="#E5A535"/>
<path d="M199.087 343.027L313.841 294.395L387.274 329.415L199.087 418.157V343.027Z" fill="#FFBC45"/>
<path d="M332.2 143.277L313.842 294.391L387.275 329.412V100.688L332.2 143.277Z" fill="#E5A535"/>
<path opacity="0.502" d="M362.517 167.847L387.275 131.002V99.3164L332.2 141.906L313.842 293.02L332.628 301.986L362.517 167.847Z" fill="#C97231"/>
<path opacity="0.502" d="M77.1799 296.378C130.046 321.564 160.562 339.994 168.715 351.696C176.882 363.398 187.002 385.562 199.089 418.159V343.029L84.3494 291.047L77.1799 296.378Z" fill="#C97231"/>
<path opacity="0.502" d="M5.7869 119.309C23.0335 121.39 35.9613 133.534 44.5703 155.74C53.1794 177.962 64.0547 224.841 77.1821 296.393L85.0786 292.559L65.9932 141.43L4.78906 103.031L5.7869 119.309Z" fill="#C97231"/>
<path d="M15.5054 329.408L85.0763 292.535L84.3494 286.762L15.5054 329.408Z" fill="white"/>
<path d="M332.201 141.898L387.276 100.691L324.148 134.614L332.201 141.898Z" fill="white"/>
<path opacity="0.102" d="M138.982 292.65C134.221 330.878 99.3862 358.017 61.1586 353.27C22.9309 348.51 -4.20757 313.674 0.538812 275.447C5.28519 237.205 40.1347 210.066 78.3623 214.827C116.59 219.573 143.728 254.423 138.982 292.65Z" fill="white"/>
<path opacity="0.2" d="M126.984 288.44C123.478 316.661 97.7503 336.687 69.5285 333.181C41.3068 329.675 21.2808 303.962 24.7871 275.74C28.2934 247.518 54.0209 227.478 82.2426 230.984C110.464 234.49 130.49 260.218 126.984 288.44Z" fill="white"/>
<path opacity="0.702" d="M80.246 247.044C76.1125 262.295 75.8843 282.093 47.8907 281.01C55.616 285.856 64.3676 290.346 69.1425 298.741C73.3758 306.21 76.0839 318.24 75.8986 326.692C78.5925 317.855 77.5377 309.161 84.2653 300.637C89.2968 294.266 96.9509 290.332 104.976 290.403C96.7228 284.403 88.9263 284.203 84.864 272.957C83.3104 268.653 81.942 264.191 81.2008 259.83C80.4169 255.311 81.7282 248.641 79.2767 245.106L80.246 247.044Z" fill="white"/>
<path d="M86.5293 284.252C84.377 277.71 82.0681 278.465 80.0727 281.259C70.0668 276.527 71.5063 308.754 83.1798 300.615C87.128 297.85 87.8549 288.3 86.5293 284.252Z" fill="white"/>
<path opacity="0.102" d="M376.26 143.473C372.711 172.008 346.699 192.262 318.163 188.713C289.628 185.164 269.374 159.166 272.923 130.631C276.472 102.095 302.47 81.8269 331.006 85.376C359.541 88.9251 379.809 114.938 376.26 143.473Z" fill="white"/>
<path opacity="0.2" d="M367.297 140.325C364.675 161.391 345.49 176.343 324.423 173.735C303.357 171.112 288.405 151.913 291.013 130.846C293.636 109.78 312.835 94.8282 333.902 97.4508C354.968 100.073 369.92 119.273 367.297 140.325Z" fill="white"/>
<path opacity="0.702" d="M332.418 109.413C329.339 120.801 329.154 135.582 308.258 134.77C314.031 138.39 320.559 141.74 324.122 147.997C327.287 153.57 329.311 162.55 329.168 168.864C331.178 162.265 330.394 155.779 335.425 149.422C339.174 144.662 344.89 141.726 350.876 141.783C344.719 137.293 338.889 137.15 335.867 128.755C334.698 125.548 333.686 122.213 333.13 118.963C332.546 115.585 333.515 110.61 331.691 107.973L332.418 109.413Z" fill="white"/>
<path d="M337.104 137.19C335.508 132.301 333.783 132.871 332.287 134.966C324.818 131.431 325.901 155.491 334.596 149.405C337.546 147.352 338.088 140.211 337.104 137.19Z" fill="white"/>
<path opacity="0.502" d="M198.422 361.77L272.525 338.452C319.832 325.438 353.371 324.654 373.154 336.086L387.279 329.415L313.846 294.395L199.092 343.027L198.422 361.77Z" fill="#C97231"/>
<path d="M199.087 343.025V418.154L209.877 338.449L199.087 343.025Z" fill="white"/>
</svg>
