<svg width="136" height="81" fill="none" xmlns="http://www.w3.org/2000/svg"><path d="M65.803 17.696l.01 45.17c0 .356.01.711.03 1.064 0 .165.124.303.287.32.155.025.311.037.468.037h9.282c.481-.002.729-.003.856-.127.136-.132.136-.403.136-.963v-.765c-.015-5.05-.015-10.1 0-15.15 0-.16-.01-.322-.02-.484-.03-.462-.06-.927.167-1.367.451-.168.916-.145 1.379-.122.16.008.32.016.48.016h6.962c.605-.003.691-.074.804-.624.049-.231.074-.467.076-.703V36.54a3.815 3.815 0 00-.11-.814c-.106-.46-.192-.528-.625-.55h-7.677l-.315.003a8.58 8.58 0 01-.63-.004c-.366 0-.462-.116-.491-.493a.936.936 0 010-.118v-7.34c.002-.468.113-.572.543-.594h9.212c.315 0 .63-.005.942-.022a.38.38 0 00.379-.377c.017-.314.017-.63.017-.945v-7.97c.004-.536.005-.806-.129-.94-.133-.133-.403-.132-.942-.13l-.265.001H67.28l-.4-.002c-.537-.006-.809-.008-.945.126-.138.137-.136.416-.132.98l.001.344zm36.479 30.621V35.058a18.81 18.81 0 00-.084-2.6 4.952 4.952 0 01.032-1.06c.116-1.456.143-2.917.113-4.375 0-.466-.108-.564-.563-.567h-5.31c-.203 0-.381.003-.538.005-.569.008-.85.012-.986-.126-.133-.135-.13-.405-.123-.938.002-.16.004-.346.003-.56-.009-1.604-.006-3.21-.003-4.814v-.017l.003-2.391c0-.316 0-.631.02-.945a.37.37 0 01.356-.387c.273-.02.548-.025.824-.025h23.607c1.212 0 1.23 0 1.23 1.26v7.695c0 .276 0 .552-.023.829a.373.373 0 01-.363.387c-.276.017-.551.025-.824.027h-4.852c-.315 0-.63 0-.942.017a.378.378 0 00-.398.35 3.47 3.47 0 00-.03.354c-.014.667-.036 1.334-.058 2.001-.049 1.502-.098 3.004-.062 4.503.134 5.761.11 11.522.086 17.283l-.001.004c-.011 2.799-.023 5.597-.016 8.396 0 .848-.024 1.699-.048 2.55-.016.568-.032 1.138-.041 1.705-.012.651-.081.72-.775.723h-5.656c-1.298 0-2.596 0-3.895-.022-.536 0-.617-.092-.649-.61-.025-.431-.025-.868-.025-1.302-.006-4.697-.009-9.394-.009-14.09zM19.533 17.798l.007 45.925c.022.523.089.58.654.602h17.462l.276.003c.183.003.366.006.548-.004.48-.02.563-.096.585-.542v-9.233c0-.745.031-1.091-.126-1.25-.159-.162-.513-.132-1.292-.132h-6.372c-.738-.002-.829-.094-.846-.797-.03-.947-.03-1.894-.03-2.841V17.916c0-.118.002-.237.004-.355.003-.237.006-.474-.003-.71-.023-.506-.106-.58-.652-.603h-8.614c-.905.004-1.304-.049-1.478.124-.17.17-.123.556-.123 1.426z" fill="#fff"/><path fill-rule="evenodd" clip-rule="evenodd" d="M1.569 80.948c-.184 0-.347.003-.49.005-.555.007-.828.01-.96-.124-.126-.13-.12-.389-.111-.897.003-.162.007-.35.007-.567C.005 53.755 0 28.144 0 2.528V.988C0 .052.022.023 1.003.003h132.89l.345-.001c.719-.003 1.062-.005 1.223.166.148.155.143.455.134 1.029-.002.156-.005.334-.005.533v77.547c0 .214.003.4.006.563.009.555.014.837-.124.978-.143.145-.437.141-1.034.134a31.332 31.332 0 00-.569-.005l-132.3.002zm123.895-8.527c.391 0 .784-.013 1.177-.037a.31.31 0 00.305-.301c.025-.392.042-.787.042-1.182V9.218c-.024-.466-.118-.57-.548-.595a16.903 16.903 0 00-.869-.012H58.932a28.2 28.2 0 01-.538-.005c-.585-.008-.877-.012-1.021.132-.144.144-.14.436-.132 1.018.002.164.005.35.005.562v41.317c0 .395-.008.79-.023 1.184a.368.368 0 01-.366.38c-.262.019-.524.02-.787.021l-.157.001h-7.906c-.194 0-.365.003-.515.005-.553.008-.829.012-.964-.124-.134-.135-.13-.407-.124-.95.002-.142.004-.3.004-.48V10.118l.002-.38c.005-.554.008-.838-.132-.982-.148-.152-.452-.15-1.075-.146l-.34.001H12.159c-.52 0-1.04-.015-1.56-.03l-.562-.014c-.377 0-.492.076-.492.473a92.977 92.977 0 00-.035 2.484v58.01c0 .435 0 .869.015 1.303.007.231.008.429.009.598.003.478.004.727.13.855.135.14.416.137 1.002.13l.443-.002 114.356.003z" fill="#fff"/></svg>