<svg width="28" height="24" viewBox="0 0 28 24" fill="none" xmlns="http://www.w3.org/2000/svg">
<path d="M10.656 0L9.875 0.10067C9.875 0.10067 6.371 0.51085 3.812 2.71168H3.782L3.75 2.74381C3.176 3.30928 2.926 4.00433 2.531 5.02068C2.06538 6.24346 1.669 7.49519 1.344 8.76905C0.602 11.6424 0 15.1231 0 18.3071V18.5748L0.125 18.8425C1.051 20.5828 2.695 21.6913 4.219 22.457C5.742 23.2228 7.059 23.6287 7.969 23.6619L8.563 23.6951L8.875 23.1264L9.969 21.0509C11.129 21.3315 12.465 21.5199 14 21.5199C15.535 21.5199 16.871 21.3315 18.031 21.0509L19.125 23.1264L19.438 23.6951L20.031 23.6619C20.941 23.6287 22.258 23.2228 23.781 22.457C25.305 21.6913 26.949 20.5828 27.875 18.8425L28 18.5748V18.3071C28 15.1231 27.398 11.6424 26.656 8.76905C26.331 7.49519 25.9346 6.24346 25.469 5.02068C25.074 4.00326 24.824 3.30928 24.25 2.74488L24.219 2.71061H24.187C21.63 0.510849 18.125 0.10067 18.125 0.10067L17.344 0L17.062 0.770023C17.062 0.770023 16.773 1.55183 16.594 2.44394C15.7343 2.31691 14.8678 2.24965 14 2.2426C13.465 2.2426 12.54 2.28008 11.406 2.44394C11.226 1.55183 10.937 0.770023 10.937 0.770023L10.656 0ZM9.281 2.44394C9.324 2.59387 9.367 2.72346 9.406 2.84555C8.113 3.18826 6.734 3.71089 5.469 4.55159L6.531 6.35938C9.125 4.63513 12.851 4.38452 14 4.38452C15.148 4.38452 18.875 4.63513 21.469 6.35938L22.531 4.55159C21.266 3.71089 19.887 3.18826 18.594 2.84448C18.633 2.72346 18.676 2.59387 18.719 2.44287C19.652 2.64421 21.434 3.10472 22.906 4.35132C22.898 4.35561 23.281 4.97463 23.625 5.8571C23.977 6.76528 24.367 7.97439 24.719 9.33773C25.395 11.952 25.926 15.1359 25.969 17.9386C25.339 18.9678 24.172 19.8964 22.937 20.5164C22.1625 20.9084 21.3431 21.1893 20.5 21.3518L20 20.449C20.297 20.3312 20.59 20.2027 20.844 20.0806C22.383 19.3566 23.219 18.5748 23.219 18.5748L21.906 16.9683C21.906 16.9683 21.344 17.521 20.031 18.14C18.72 18.759 16.715 19.378 14 19.378C11.285 19.378 9.281 18.759 7.969 18.14C6.656 17.521 6.094 16.9683 6.094 16.9683L4.781 18.5748C4.781 18.5748 5.617 19.3566 7.156 20.0806C7.41 20.2027 7.703 20.3322 8 20.449L7.5 21.3529C6.65648 21.1898 5.83673 20.9082 5.062 20.5154C3.828 19.8964 2.66 18.9678 2.032 17.9386C2.074 15.1359 2.605 11.952 3.282 9.33773C3.58115 8.1552 3.94614 6.99291 4.375 5.8571C4.719 4.97463 5.102 4.35561 5.094 4.35132C6.566 3.10472 8.348 2.64421 9.281 2.44394ZM10.5 9.73934C9.727 9.73934 9.043 10.2116 8.625 10.8103C8.207 11.409 8 12.1447 8 12.9522C8 13.7597 8.207 14.4955 8.625 15.0942C9.043 15.6928 9.727 16.1651 10.5 16.1651C11.273 16.1651 11.957 15.6928 12.375 15.0942C12.793 14.4955 13 13.7597 13 12.9522C13 12.1447 12.793 11.409 12.375 10.8103C11.957 10.2116 11.273 9.73934 10.5 9.73934ZM17.5 9.73934C16.727 9.73934 16.043 10.2116 15.625 10.8103C15.207 11.409 15 12.1447 15 12.9522C15 13.7597 15.207 14.4955 15.625 15.0942C16.043 15.6928 16.727 16.1651 17.5 16.1651C18.273 16.1651 18.957 15.6928 19.375 15.0942C19.793 14.4955 20 13.7597 20 12.9522C20 12.1447 19.793 11.409 19.375 10.8103C18.957 10.2116 18.273 9.73934 17.5 9.73934ZM10.5 11.8813C10.555 11.8813 10.625 11.9027 10.75 12.0826C10.875 12.2615 11 12.5753 11 12.9522C11 13.3292 10.875 13.643 10.75 13.8229C10.625 14.0018 10.555 14.0232 10.5 14.0232C10.445 14.0232 10.375 14.0018 10.25 13.8219C10.0846 13.5667 9.99728 13.2628 10 12.9522C10 12.5753 10.125 12.2615 10.25 12.0815C10.375 11.9027 10.445 11.8813 10.5 11.8813ZM17.5 11.8813C17.555 11.8813 17.625 11.9027 17.75 12.0826C17.875 12.2615 18 12.5753 18 12.9522C18 13.3292 17.875 13.643 17.75 13.8229C17.625 14.0018 17.555 14.0232 17.5 14.0232C17.445 14.0232 17.375 14.0018 17.25 13.8219C17.0846 13.5667 16.9973 13.2628 17 12.9522C17 12.5753 17.125 12.2615 17.25 12.0815C17.375 11.9027 17.445 11.8813 17.5 11.8813Z" fill="white"/>
</svg>
