<svg width="48" height="48" viewBox="0 0 48 48" fill="none" xmlns="http://www.w3.org/2000/svg">
<circle cx="24" cy="24" r="23.5" stroke="#FF9E00"/>
<path d="M23.9967 17.6283C20.798 17.6283 18.2166 20.393 18.2166 23.8187C18.2166 27.2444 20.798 30.0091 23.9967 30.0091C27.1953 30.0091 29.7767 27.2444 29.7767 23.8187C29.7767 20.393 27.1953 17.6283 23.9967 17.6283ZM23.9967 27.842C21.9281 27.842 20.24 26.0341 20.24 23.8187C20.24 21.6033 21.9281 19.7954 23.9967 19.7954C26.0652 19.7954 27.7533 21.6033 27.7533 23.8187C27.7533 26.0341 26.0652 27.842 23.9967 27.842ZM30.0135 15.9321C29.2666 15.9321 28.6636 16.578 28.6636 17.3778C28.6636 18.1776 29.2666 18.8235 30.0135 18.8235C30.7603 18.8235 31.3634 18.1806 31.3634 17.3778C31.3636 17.1879 31.3288 16.9998 31.2611 16.8242C31.1933 16.6487 31.0939 16.4893 30.9685 16.355C30.8431 16.2207 30.6942 16.1142 30.5303 16.0416C30.3664 15.969 30.1908 15.9318 30.0135 15.9321ZM35.2637 23.8187C35.2637 22.1526 35.2778 20.5017 35.1905 18.8386C35.1031 16.9069 34.6916 15.1926 33.3727 13.78C32.051 12.3645 30.4531 11.9268 28.6495 11.8333C27.0938 11.7397 25.5523 11.7548 23.9995 11.7548C22.4438 11.7548 20.9023 11.7397 19.3495 11.8333C17.5458 11.9268 15.9451 12.3675 14.6262 13.78C13.3045 15.1956 12.8958 16.9069 12.8085 18.8386C12.7211 20.5047 12.7352 22.1557 12.7352 23.8187C12.7352 25.4818 12.7211 27.1358 12.8085 28.7988C12.8958 30.7305 13.3073 32.4449 14.6262 33.8574C15.9479 35.2729 17.5458 35.7106 19.3495 35.8042C20.9051 35.8977 22.4467 35.8826 23.9995 35.8826C25.5551 35.8826 27.0966 35.8977 28.6495 35.8042C30.4531 35.7106 32.0538 35.2699 33.3727 33.8574C34.6945 32.4418 35.1031 30.7305 35.1905 28.7988C35.2806 27.1358 35.2637 25.4848 35.2637 23.8187ZM32.7837 30.9357C32.578 31.4851 32.33 31.8955 31.9326 32.3181C31.5353 32.7437 31.1548 33.0093 30.6419 33.2296C29.1596 33.8604 25.6397 33.7186 23.9967 33.7186C22.3537 33.7186 18.8309 33.8604 17.3486 33.2326C16.8357 33.0123 16.4524 32.7467 16.0578 32.3211C15.6605 31.8955 15.4125 31.4881 15.2068 30.9388C14.6206 29.3481 14.753 25.5784 14.753 23.8187C14.753 22.0591 14.6206 18.2863 15.2068 16.6987C15.4125 16.1494 15.6605 15.7389 16.0578 15.3163C16.4552 14.8938 16.8357 14.6252 17.3486 14.4048C18.8309 13.777 22.3537 13.9189 23.9967 13.9189C25.6397 13.9189 29.1624 13.777 30.6447 14.4048C31.1576 14.6252 31.5409 14.8908 31.9355 15.3163C32.3328 15.7419 32.5808 16.1494 32.7866 16.6987C33.3727 18.2863 33.2403 22.0591 33.2403 23.8187C33.2403 25.5784 33.3727 29.3481 32.7837 30.9357Z" fill="#FF9E00"/>
</svg>
