<?xml version="1.0" encoding="utf-8"?>
<!-- Generator: Adobe Illustrator 24.1.2, SVG Export Plug-In . SVG Version: 6.00 Build 0)  -->
<svg version="1.1" id="Layer_1" xmlns="http://www.w3.org/2000/svg" xmlns:xlink="http://www.w3.org/1999/xlink" x="0px" y="0px"
	 viewBox="0 0 48 48" style="enable-background:new 0 0 48 48;" xml:space="preserve">
<style type="text/css">
	.st0{fill:#FF9E00;stroke:#FFFFFF;stroke-miterlimit:10;}
	.st1{fill:#FFFFFF;stroke:#FF9E00;stroke-miterlimit:10;}
</style>
<circle class="st0" cx="24" cy="24" r="23.5"/>
<path class="st1" d="M24,17.6c-3.2,0-5.8,2.8-5.8,6.2S20.8,30,24,30c3.2,0,5.8-2.8,5.8-6.2S27.2,17.6,24,17.6z M24,27.8
	c-2.1,0-3.8-1.8-3.8-4s1.7-4,3.8-4c2.1,0,3.8,1.8,3.8,4S26.1,27.8,24,27.8z M30,15.9c-0.7,0-1.3,0.6-1.3,1.4s0.6,1.4,1.3,1.4
	c0.7,0,1.3-0.6,1.3-1.4c0-0.2,0-0.4-0.1-0.6c-0.1-0.2-0.2-0.3-0.3-0.5s-0.3-0.2-0.4-0.3C30.4,16,30.2,15.9,30,15.9z M35.3,23.8
	c0-1.7,0-3.3-0.1-5c-0.1-1.9-0.5-3.6-1.8-5.1c-1.3-1.4-2.9-1.9-4.7-1.9c-1.6-0.1-3.1-0.1-4.6-0.1c-1.6,0-3.1,0-4.6,0.1
	c-1.8,0.1-3.4,0.5-4.7,1.9c-1.3,1.4-1.7,3.1-1.8,5.1c-0.1,1.7-0.1,3.3-0.1,5c0,1.7,0,3.3,0.1,5c0.1,1.9,0.5,3.6,1.8,5.1
	c1.3,1.4,2.9,1.9,4.7,1.9c1.6,0.1,3.1,0.1,4.6,0.1c1.6,0,3.1,0,4.6-0.1c1.8-0.1,3.4-0.5,4.7-1.9c1.3-1.4,1.7-3.1,1.8-5.1
	C35.3,27.1,35.3,25.5,35.3,23.8z M32.8,30.9c-0.2,0.5-0.5,1-0.9,1.4c-0.4,0.4-0.8,0.7-1.3,0.9c-1.5,0.6-5,0.5-6.6,0.5
	s-5.2,0.1-6.6-0.5c-0.5-0.2-0.9-0.5-1.3-0.9c-0.4-0.4-0.6-0.8-0.9-1.4c-0.6-1.6-0.5-5.4-0.5-7.1c0-1.8-0.1-5.5,0.5-7.1
	c0.2-0.5,0.5-1,0.9-1.4c0.4-0.4,0.8-0.7,1.3-0.9c1.5-0.6,5-0.5,6.6-0.5s5.2-0.1,6.6,0.5c0.5,0.2,0.9,0.5,1.3,0.9
	c0.4,0.4,0.6,0.8,0.9,1.4c0.6,1.6,0.5,5.4,0.5,7.1C33.2,25.6,33.4,29.3,32.8,30.9z"/>
</svg>
