<svg width="48" height="48" xmlns="http://www.w3.org/2000/svg" fill="none">

 <g>
  <title>Layer 1</title>
  <path fill="none" id="svg_1" d="m24,47.5c-12.98343,0 -23.5,-10.51657 -23.5,-23.5c0,-12.98343 10.51657,-23.5 23.5,-23.5c12.98343,0 23.5,10.51657 23.5,23.5c0,12.98343 -10.51657,23.5 -23.5,23.5z" opacity="undefined" stroke="#FF9E00"/>
  <path stroke="#FF9E00" id="svg_2" fill="none" d="m23.9967,17.6283c-3.1987,0 -5.7801,2.7647 -5.7801,6.1904c0,3.4257 2.5814,6.1904 5.7801,6.1904c3.1986,0 5.78,-2.7647 5.78,-6.1904c0,-3.4257 -2.5814,-6.1904 -5.78,-6.1904zm0,10.2137c-2.0686,0 -3.7567,-1.8079 -3.7567,-4.0233c0,-2.2154 1.6881,-4.0233 3.7567,-4.0233c2.0685,0 3.7566,1.8079 3.7566,4.0233c0,2.2154 -1.6881,4.0233 -3.7566,4.0233zm6.0168,-11.9099c-0.7469,0 -1.3499,0.6459 -1.3499,1.4457c0,0.7998 0.603,1.4457 1.3499,1.4457c0.7468,0 1.3499,-0.6429 1.3499,-1.4457c0.0002,-0.1899 -0.0346,-0.378 -0.1023,-0.5536c-0.0678,-0.1755 -0.1672,-0.3349 -0.2926,-0.4692c-0.1254,-0.1343 -0.2743,-0.2408 -0.4382,-0.3134c-0.1639,-0.0726 -0.3395,-0.1098 -0.5168,-0.1095zm5.2502,7.8866c0,-1.6661 0.0141,-3.317 -0.0732,-4.9801c-0.0874,-1.9317 -0.4989,-3.646 -1.8178,-5.0586c-1.3217,-1.4155 -2.9196,-1.8532 -4.7232,-1.9467c-1.5557,-0.0936 -3.0972,-0.0785 -4.65,-0.0785c-1.5557,0 -3.0972,-0.0151 -4.65,0.0785c-1.8037,0.0935 -3.4044,0.5342 -4.7233,1.9467c-1.3217,1.4156 -1.7304,3.1269 -1.8177,5.0586c-0.0874,1.6661 -0.0733,3.3171 -0.0733,4.9801c0,1.6631 -0.0141,3.3171 0.0733,4.9801c0.0873,1.9317 0.4988,3.6461 1.8177,5.0586c1.3217,1.4155 2.9196,1.8532 4.7233,1.9468c1.5556,0.0935 3.0972,0.0784 4.65,0.0784c1.5556,0 3.0971,0.0151 4.65,-0.0784c1.8036,-0.0936 3.4043,-0.5343 4.7232,-1.9468c1.3218,-1.4156 1.7304,-3.1269 1.8178,-5.0586c0.0901,-1.663 0.0732,-3.314 0.0732,-4.9801zm-2.48,7.117c-0.2057,0.5494 -0.4537,0.9598 -0.8511,1.3824c-0.3973,0.4256 -0.7778,0.6912 -1.2907,0.9115c-1.4823,0.6308 -5.0022,0.489 -6.6452,0.489c-1.643,0 -5.1658,0.1418 -6.6481,-0.486c-0.5129,-0.2203 -0.8962,-0.4859 -1.2908,-0.9115c-0.3973,-0.4256 -0.6453,-0.833 -0.851,-1.3823c-0.5862,-1.5907 -0.4538,-5.3604 -0.4538,-7.1201c0,-1.7596 -0.1324,-5.5324 0.4538,-7.12c0.2057,-0.5493 0.4537,-0.9598 0.851,-1.3824c0.3974,-0.4225 0.7779,-0.6911 1.2908,-0.9115c1.4823,-0.6278 5.0051,-0.4859 6.6481,-0.4859c1.643,0 5.1657,-0.1419 6.648,0.4859c0.5129,0.2204 0.8962,0.486 1.2908,0.9115c0.3973,0.4256 0.6453,0.8331 0.8511,1.3824c0.5861,1.5876 0.4537,5.3604 0.4537,7.12c0,1.7597 0.1324,5.5294 -0.4566,7.117z"/>
 </g>
</svg>